<svg width="60" height="70" viewBox="0 0 60 70" fill="none" xmlns="http://www.w3.org/2000/svg">
<path d="M54.7994 0.505814C53.3604 1.06146 51.8929 2.44345 50.5109 4.50932C49.1432 6.56094 47.3195 10.7212 46.6214 13.3712C46.422 14.1263 46.308 14.34 46.1085 14.34C45.966 14.34 45.7381 14.4967 45.6099 14.6962C45.2822 15.1948 45.5244 15.7362 46.422 16.5341L47.1058 17.1609L46.251 18.4432C45.1539 20.0817 44.0569 22.5037 43.1736 25.1964C42.5609 27.0628 42.4612 27.2908 42.219 27.2053C41.3072 26.9346 39.5832 27.2908 37.9448 28.1171C34.5397 29.8126 31.7899 32.5338 30.2227 35.7395L29.8238 36.5658H28.4418H27.0456L27.188 36.1099C27.2593 35.8535 27.3163 35.1696 27.3163 34.5997C27.3163 32.7475 26.9316 31.8927 22.9993 25.0255C21.0759 21.6489 19.295 19.4975 17.6138 18.5144C17.1864 18.258 16.4028 17.9446 15.8614 17.8021C15.0066 17.6026 14.7501 17.5884 13.8668 17.7451C13.3111 17.8448 12.784 17.9446 12.6843 17.9446C12.5988 17.9588 12.1714 17.2607 11.7439 16.3916C10.9461 14.7816 9.97727 13.1717 8.01114 10.137C7.3985 9.19669 6.45818 7.68647 5.90253 6.78889C4.90522 5.1077 4.03613 4.06765 3.35226 3.71146C2.78236 3.41227 1.55709 3.45502 0.987199 3.79695C0.331821 4.19588 -0.0955987 5.19319 0.01838 6.06228C0.160853 7.17357 1.12967 8.85476 2.93908 11.1201C3.87941 12.2884 4.60602 13.3142 4.57753 13.3997C4.53479 13.4994 4.87672 14.0835 5.33264 14.7104C6.21597 15.9357 8.03963 18.7709 8.78049 20.0674L9.23641 20.8795L8.80899 22.1333C8.22484 23.8572 8.02538 25.4387 8.12511 27.4333C8.25334 29.9408 8.80899 32.1207 9.94877 34.5569C10.2622 35.2123 10.4759 35.7822 10.4474 35.8107C10.4189 35.8535 9.36463 35.825 8.11087 35.7537C6.8571 35.6825 5.20441 35.6825 4.43505 35.7395C3.53747 35.8107 2.98183 35.7965 2.89634 35.711C2.69688 35.5115 2.29795 35.54 2.05575 35.7822C1.45736 36.3664 1.38612 41.7519 1.94177 44.3876C3.83667 53.3777 10.7039 61.114 19.4517 64.1344C19.58 64.1772 19.5515 64.3196 19.3378 64.6616C18.7536 65.6304 19.1383 66.9839 20.2211 67.7675C21.1187 68.4229 22.3724 68.7363 26.0198 69.2065C36.1496 70.5172 42.1335 69.4772 43.5582 66.1718C43.8289 65.5449 43.8717 65.2457 43.8147 64.2341L43.7435 63.0374L44.3988 62.7667C49.1289 60.7863 52.5626 57.3527 55.0986 52.0669C56.965 48.1632 58.0763 43.889 58.5892 38.5604C58.8456 35.9247 58.8456 35.6397 58.5749 35.369C58.3185 35.0983 57.7913 35.0699 57.5634 35.2978C57.4779 35.3833 56.9935 35.483 56.4948 35.4973C55.9962 35.5258 53.8306 35.6682 51.6792 35.8392C49.5279 35.9959 47.3195 36.1384 46.7639 36.1526L45.7666 36.1954L45.6668 34.7137C45.4816 32.0067 45.04 30.069 44.2564 28.5873L43.8432 27.8037L44.5413 26.2365C44.926 25.3674 45.8093 23.5438 46.5217 22.176C47.2341 20.8083 47.9464 19.298 48.1174 18.8279L48.4166 17.9588L49.4424 17.973C50.34 17.973 50.5822 17.9161 51.3943 17.4886C53.3747 16.4343 55.5687 13.7273 58.0478 9.25368C59.5722 6.50394 60.0139 5.30717 59.9997 3.79695C59.9997 2.14426 59.4583 1.30367 57.948 0.605545C56.9935 0.163879 55.7825 0.12114 54.7994 0.505814ZM57.4921 2.65717C58.1475 3.05609 58.3042 3.5405 58.1048 4.50932C57.9196 5.43539 56.3239 8.75502 55.1841 10.6072C53.3747 13.5279 51.0096 16.3631 50.2117 16.5626C49.6276 16.705 48.844 16.4201 48.1459 15.8217C47.6045 15.3658 47.5617 15.2803 47.7327 15.0666C48.1459 14.5964 48.8298 13.2287 49.2572 11.9892C50.2687 9.1112 52.4486 5.17894 53.8591 3.68298C54.9989 2.4862 56.5091 2.05878 57.4921 2.65717ZM2.71113 6.13351C3.49473 6.91712 4.80549 8.8405 7.08506 12.5591C9.67807 16.7763 10.2052 17.4744 11.9719 19.0131C12.0289 19.0701 12.1714 19.2411 12.2853 19.3978C12.4421 19.64 12.6843 19.697 13.9665 19.7682C15.2773 19.8394 15.5907 19.9107 16.4028 20.3096C18.1837 21.1787 19.6512 22.8456 21.4179 25.9516C21.945 26.8919 22.9138 28.5731 23.5692 29.6701C24.2246 30.7814 24.9655 32.1634 25.2219 32.7333C25.6208 33.6736 25.6636 33.9301 25.6778 35.2123C25.6778 36.5088 25.6351 36.7083 25.2647 37.4207C24.6805 38.5462 23.1133 40.0137 20.8765 41.5239C19.8079 42.2363 18.8534 42.8347 18.7679 42.8347C18.4544 42.8347 17.4856 42.2505 16.6593 41.5666C15.5195 40.6263 14.1802 38.7884 12.8695 36.4376C10.1767 31.5793 9.30764 28.8295 9.2934 25.168C9.2934 23.1733 9.5641 21.3069 9.84904 21.3354C10.5472 21.4209 10.5329 20.737 9.8063 19.298C9.2649 18.2437 7.05656 14.8529 6.80011 14.6962C6.74312 14.6534 6.71463 14.4967 6.75737 14.34C6.87135 13.8983 6.24447 13.0007 3.73693 10.0658C1.27215 7.18782 0.87322 6.4897 1.24365 5.77733C1.5001 5.32142 2.01301 5.44964 2.71113 6.13351ZM40.0107 30.183C36.5201 34.8276 33.7846 40.8685 32.6305 46.4677C32.4881 47.1373 32.3313 47.6787 32.2886 47.6787C32.0749 47.6787 31.391 46.7099 31.0063 45.8978C29.2254 42.108 31.391 35.2978 35.48 31.8357C36.7195 30.7814 38.358 29.7698 39.7684 29.1999C40.4096 28.9435 40.9652 28.7298 41.0222 28.7298C41.0792 28.7298 40.6233 29.3852 40.0107 30.183ZM42.1193 30.2258C41.4496 37.3922 38.8424 43.2621 34.8816 46.4677C34.3545 46.8951 33.8701 47.2513 33.8273 47.2513C33.7846 47.2513 33.8558 46.8809 33.9698 46.425C35.0526 42.165 37.1754 36.9647 39.4123 33.0895C40.3811 31.4083 42.1335 28.687 42.2047 28.7583C42.2332 28.7868 42.1905 29.4422 42.1193 30.2258ZM43.5582 33.9158C43.7719 35.597 43.6722 38.2897 43.3445 39.9139C42.4897 44.0599 40.723 46.8666 38.2012 48.0634C37.1754 48.5478 36.9475 48.6048 35.651 48.6476L34.2262 48.7046L34.7961 48.2344C36.1354 47.1516 38.2867 44.8293 39.0561 43.661C40.8228 40.9398 42.1193 37.6486 42.8174 34.1153C43.0311 33.0467 43.2448 32.2489 43.3018 32.3344C43.3445 32.4341 43.4728 33.1465 43.5582 33.9158ZM4.94796 36.7938C5.68882 36.979 7.46974 37.2639 8.89447 37.4064C10.3335 37.5489 11.5302 37.6914 11.5445 37.7199C11.573 37.7484 11.9007 38.3182 12.2853 38.9879C13.7243 41.5096 15.0351 42.9486 16.645 43.7465C17.8703 44.3591 18.7679 44.4446 19.1098 43.9602C19.2238 43.7892 19.7937 43.4615 20.3636 43.2051C22.5292 42.2648 24.3813 40.84 25.7633 39.0449L26.376 38.2328L27.7152 38.3182C28.4561 38.361 29.0829 38.4322 29.1114 38.4607C29.1542 38.5035 29.0829 38.9309 28.9547 39.4295C28.4276 41.4384 28.4561 44.3449 29.0117 45.9976C30.6644 50.9841 36.3063 52.0527 40.8655 48.2344C41.8201 47.4365 43.1593 45.6129 43.8432 44.1881C44.4701 42.8631 45.3249 40.0707 45.4816 38.8169L45.5814 38.019L46.251 37.9336C46.6072 37.8908 47.6472 37.8196 48.5448 37.7768C50.4967 37.6771 54.9704 37.3352 56.1386 37.1927L56.965 37.093L56.8653 37.6486C56.5803 39.2158 55.0416 45.1427 54.4859 46.8239C51.9072 54.5602 47.8039 59.1906 41.5636 61.3989C40.8085 61.6554 40.5948 61.7979 40.4238 62.1683C40.2386 62.553 40.0961 62.6527 39.4977 62.7809C37.4176 63.2083 34.4114 63.4505 29.3109 63.6358C27.0741 63.707 24.538 63.821 23.669 63.8637L22.0875 63.9634L22.1587 63.5075C22.2727 62.7097 21.5604 62.1968 19.5515 61.6411C13.9238 60.0739 8.70926 55.757 5.97377 50.4C3.97914 46.5247 3.26677 43.6325 3.13855 39.0021C3.06731 36.3379 3.06731 36.2381 3.32376 36.3379C3.48048 36.3949 4.2071 36.6086 4.94796 36.7938ZM41.9483 64.861C42.0053 65.3597 41.9625 65.4879 41.4354 66.0863C40.7515 66.8557 39.8112 67.3543 38.2155 67.7817C36.5913 68.2234 31.4053 68.3231 27.9574 67.9812C22.7001 67.4683 21.6601 67.2688 20.9477 66.5992C20.4633 66.1433 20.5061 65.4452 21.0332 65.0747L21.4464 64.7755L22.1302 65.1032C22.7856 65.4024 23.0421 65.4167 26.5897 65.4594C30.0945 65.5022 32.2174 65.4167 36.577 65.0605C39.7542 64.7898 40.5236 64.6758 41.0792 64.3909C41.3926 64.2484 41.6918 64.1629 41.7488 64.2199C41.8201 64.2769 41.9055 64.5618 41.9483 64.861Z" fill="white"/>
<path d="M7.35567 42.3502C7.09921 42.6637 7.17045 44.2451 7.51239 45.5131C8.18201 47.9352 9.27906 49.7161 11.7011 52.1951C13.767 54.3322 15.035 55.2441 16.0465 55.3438C16.7732 55.415 16.7732 55.415 16.7732 54.9876C16.7732 54.3607 16.1463 53.5914 14.2941 51.9529C10.8035 48.8898 9.33605 46.4962 8.86588 43.1196C8.82314 42.7777 8.70916 42.4072 8.62368 42.3075C8.40997 42.051 7.58362 42.0795 7.35567 42.3502Z" fill="white"/>
<path d="M19.2523 56.2984C18.369 56.6688 18.2835 57.8799 19.1098 58.3785C19.8222 58.8202 20.6486 58.4782 20.8338 57.6377C21.0332 56.7116 20.1214 55.928 19.2523 56.2984Z" fill="white"/>
</svg>
