<svg width="40" height="47" viewBox="0 0 40 47" fill="none" xmlns="http://www.w3.org/2000/svg">
<path d="M36.5329 0.174938C35.5736 0.545368 34.5953 1.46669 33.674 2.84394C32.7621 4.21168 31.5464 6.98516 31.0809 8.75183C30.948 9.25524 30.872 9.39771 30.739 9.39771C30.644 9.39771 30.4921 9.50219 30.4066 9.63517C30.1881 9.96761 30.3496 10.3285 30.948 10.8604L31.4039 11.2784L30.834 12.1332C30.1026 13.2255 29.3713 14.8402 28.7824 16.6354C28.374 17.8796 28.3075 18.0316 28.146 17.9746C27.5381 17.7941 26.3888 18.0316 25.2965 18.5825C23.0265 19.7128 21.1933 21.5269 20.1485 23.664L19.8825 24.2149H18.9612H18.0304L18.1254 23.911C18.1729 23.74 18.2109 23.2841 18.2109 22.9042C18.2109 21.6694 17.9544 21.0995 15.3329 16.5214C14.0506 14.2703 12.8634 12.8361 11.7426 12.1807C11.4576 12.0097 10.9352 11.8008 10.5743 11.7058C10.0044 11.5728 9.83342 11.5633 9.24453 11.6678C8.8741 11.7343 8.52266 11.8008 8.45617 11.8008C8.39919 11.8103 8.11424 11.3448 7.82929 10.7655C7.29739 9.69216 6.65151 8.61886 5.34076 6.59574C4.93233 5.96885 4.30545 4.96204 3.93502 4.36366C3.27014 3.24286 2.69075 2.54949 2.23484 2.31204C1.85491 2.11258 1.03806 2.14107 0.658133 2.36903C0.221214 2.63498 -0.0637324 3.29985 0.0122534 3.87925C0.107236 4.62011 0.753115 5.7409 1.95939 7.25111C2.58627 8.02997 3.07068 8.71384 3.05169 8.77083C3.02319 8.83731 3.25115 9.22674 3.55509 9.64466C4.14398 10.4615 5.35975 12.3517 5.85366 13.216L6.1576 13.7574L5.87266 14.5932C5.48323 15.7425 5.35026 16.7968 5.41674 18.1266C5.50223 19.7983 5.87266 21.2515 6.63252 22.8757C6.84148 23.3126 6.98395 23.6925 6.96495 23.7115C6.94596 23.74 6.24309 23.721 5.40724 23.6735C4.5714 23.6261 3.46961 23.6261 2.9567 23.664C2.35831 23.7115 1.98788 23.702 1.93089 23.645C1.79792 23.5121 1.53197 23.5311 1.3705 23.6925C0.971574 24.082 0.924083 27.6723 1.29451 29.4295C2.55778 35.4228 7.13592 40.5804 12.9678 42.594C13.0533 42.6225 13.0343 42.7175 12.8918 42.9454C12.5024 43.5913 12.7589 44.4937 13.4807 45.0161C14.0791 45.453 14.915 45.6619 17.3465 45.9754C24.0998 46.8492 28.089 46.1558 29.0388 43.9523C29.2193 43.5343 29.2478 43.3349 29.2098 42.6605L29.1623 41.8626L29.5992 41.6822C32.7526 40.3619 35.0417 38.0729 36.7324 34.549C37.9767 31.9465 38.7175 29.097 39.0595 25.5447C39.2304 23.7875 39.2304 23.5976 39.05 23.4171C38.879 23.2366 38.5276 23.2176 38.3756 23.3696C38.3186 23.4266 37.9957 23.4931 37.6632 23.5026C37.3308 23.5216 35.887 23.6166 34.4528 23.7305C33.0186 23.835 31.5464 23.93 31.1759 23.9395L30.5111 23.968L30.4446 22.9802C30.3211 21.1755 30.0266 19.8838 29.5042 18.8959L29.2288 18.3735L29.6942 17.3287C29.9507 16.7493 30.5395 15.5336 31.0145 14.6217C31.4894 13.7099 31.9643 12.7031 32.0783 12.3897L32.2777 11.8103L32.9616 11.8198C33.56 11.8198 33.7215 11.7818 34.2629 11.4968C35.5831 10.7939 37.0458 8.98929 38.6985 6.00685C39.7148 4.17369 40.0093 3.37584 39.9998 2.36903C39.9998 1.26723 39.6388 0.706837 38.632 0.241425C37.9957 -0.0530205 37.1883 -0.0815163 36.5329 0.174938ZM38.3281 1.60917C38.765 1.87512 38.8695 2.19806 38.7365 2.84394C38.613 3.46132 37.5492 5.67441 36.7894 6.90918C35.5831 8.85632 34.0064 10.7465 33.4745 10.8794C33.0851 10.9744 32.5627 10.7845 32.0973 10.3855C31.7363 10.0816 31.7078 10.0246 31.8218 9.88212C32.0973 9.56868 32.5532 8.65685 32.8381 7.83051C33.5125 5.91186 34.9657 3.29036 35.906 2.29304C36.6659 1.49519 37.6727 1.21024 38.3281 1.60917ZM1.80742 3.92673C2.32982 4.44914 3.20366 5.7314 4.72337 8.21043C6.45205 11.0219 6.80348 11.4873 7.98126 12.5131C8.01926 12.5511 8.11424 12.6651 8.19022 12.7696C8.29471 12.931 8.45617 12.969 9.31102 13.0165C10.1849 13.064 10.3938 13.1115 10.9352 13.3775C12.1225 13.9569 13.1008 15.0682 14.2786 17.1388C14.63 17.7656 15.2759 18.8864 15.7128 19.6178C16.1497 20.3587 16.6436 21.28 16.8146 21.6599C17.0806 22.2868 17.1091 22.4578 17.1186 23.3126C17.1186 24.1769 17.0901 24.3099 16.8431 24.7848C16.4537 25.5352 15.4089 26.5135 13.9177 27.5203C13.2053 27.9952 12.5689 28.3942 12.5119 28.3942C12.303 28.3942 11.6571 28.0047 11.1062 27.5488C10.3463 26.9219 9.45349 25.6967 8.57965 24.1295C6.78449 20.8906 6.2051 19.0574 6.1956 16.6164C6.1956 15.2866 6.37606 14.0423 6.56603 14.0613C7.03144 14.1183 7.02194 13.6624 6.53753 12.7031C6.1766 12.0002 4.70438 9.73965 4.53341 9.63517C4.49542 9.60667 4.47642 9.50219 4.50491 9.39771C4.5809 9.10327 4.16298 8.50488 2.49129 6.54824C0.848097 4.6296 0.582147 4.16419 0.829101 3.68928C1.00007 3.38534 1.342 3.47082 1.80742 3.92673ZM26.6738 19.9597C24.3467 23.0562 22.523 27.0834 21.7537 30.8162C21.6587 31.2626 21.5542 31.6236 21.5257 31.6236C21.3833 31.6236 20.9273 30.9777 20.6709 30.4363C19.4836 27.9097 20.9273 23.3696 23.6533 21.0615C24.4797 20.3587 25.572 19.6843 26.5123 19.3044C26.9397 19.1334 27.3102 18.9909 27.3481 18.9909C27.3861 18.9909 27.0822 19.4278 26.6738 19.9597ZM28.0795 19.9882C27.6331 24.7658 25.8949 28.6791 23.2544 30.8162C22.903 31.1012 22.58 31.3386 22.5515 31.3386C22.523 31.3386 22.5705 31.0917 22.6465 30.7877C23.3684 27.9477 24.7836 24.4809 26.2748 21.8974C26.9207 20.7766 28.089 18.9624 28.1365 19.0099C28.1555 19.0289 28.127 19.4658 28.0795 19.9882ZM29.0388 22.4483C29.1813 23.5691 29.1148 25.3642 28.8964 26.447C28.3265 29.211 27.1487 31.0822 25.4675 31.88C24.7836 32.2029 24.6317 32.2409 23.7673 32.2694L22.8175 32.3074L23.1974 31.994C24.0903 31.2721 25.5245 29.7239 26.0374 28.9451C27.2152 27.1309 28.0795 24.9368 28.5449 22.5812C28.6874 21.8689 28.8299 21.337 28.8679 21.394C28.8964 21.4605 28.9818 21.9354 29.0388 22.4483ZM3.29864 24.3669C3.79255 24.4904 4.97982 24.6804 5.92965 24.7753C6.88897 24.8703 7.68682 24.9653 7.69632 24.9843C7.71531 25.0033 7.93377 25.3832 8.19022 25.8296C9.14954 27.5108 10.0234 28.4701 11.0967 29.002C11.9135 29.4105 12.5119 29.4675 12.7399 29.1445C12.8159 29.0305 13.1958 28.8121 13.5757 28.6411C15.0194 28.0142 16.2542 27.0644 17.1755 25.8676L17.584 25.3262L18.4768 25.3832C18.9707 25.4117 19.3886 25.4592 19.4076 25.4782C19.4361 25.5067 19.3886 25.7916 19.3031 26.1241C18.9517 27.4633 18.9707 29.401 19.3411 30.5028C20.4429 33.8271 24.2042 34.5395 27.2437 31.994C27.88 31.4621 28.7729 30.2463 29.2288 29.2965C29.6467 28.4132 30.2166 26.5515 30.3211 25.7157L30.3876 25.1838L30.834 25.1268C31.0714 25.0983 31.7648 25.0508 32.3632 25.0223C33.6645 24.9558 36.6469 24.7278 37.4258 24.6329L37.9767 24.5664L37.9102 24.9368C37.7202 25.9816 36.6944 29.9329 36.324 31.0537C34.6048 36.2112 31.8693 39.2981 27.7091 40.7703C27.2057 40.9413 27.0632 41.0363 26.9492 41.2833C26.8257 41.5397 26.7308 41.6062 26.3318 41.6917C24.9451 41.9766 22.941 42.1381 19.5406 42.2616C18.0494 42.3091 16.3587 42.385 15.7793 42.4135L14.725 42.48L14.7725 42.1761C14.8485 41.6442 14.3736 41.3022 13.0343 40.9318C9.28252 39.887 5.80617 37.009 3.98251 33.4377C2.65276 30.8542 2.17785 28.9261 2.09236 25.8391C2.04487 24.063 2.04487 23.9965 2.21584 24.063C2.32032 24.101 2.80473 24.2434 3.29864 24.3669ZM27.9655 43.0784C28.0035 43.4109 27.975 43.4963 27.6236 43.8953C27.1677 44.4082 26.5408 44.7406 25.477 45.0256C24.3942 45.32 20.9368 45.3865 18.6383 45.1585C15.1334 44.8166 14.4401 44.6836 13.9651 44.2372C13.6422 43.9333 13.6707 43.4678 14.0221 43.2209L14.2976 43.0214L14.7535 43.2399C15.1904 43.4393 15.3614 43.4488 17.7264 43.4773C20.063 43.5058 21.4782 43.4488 24.3847 43.2114C26.5028 43.0309 27.0157 42.9549 27.3861 42.765C27.5951 42.67 27.7946 42.613 27.8326 42.651C27.88 42.689 27.937 42.879 27.9655 43.0784Z" fill="black"/>
<path d="M4.90378 28.0713C4.73281 28.2802 4.7803 29.3345 5.00826 30.1799C5.45467 31.7946 6.18604 32.9819 7.80074 34.6346C9.17798 36.0593 10.0233 36.6672 10.6977 36.7337C11.1821 36.7811 11.1821 36.7811 11.1821 36.4962C11.1821 36.0783 10.7642 35.5654 9.52941 34.4731C7.20235 32.431 6.22403 30.8353 5.91059 28.5842C5.88209 28.3562 5.80611 28.1093 5.74912 28.0428C5.60665 27.8718 5.05575 27.8908 4.90378 28.0713Z" fill="black"/>
<path d="M12.835 37.37C12.2461 37.617 12.1891 38.4243 12.74 38.7568C13.2149 39.0512 13.7658 38.8233 13.8893 38.2629C14.0222 37.6455 13.4144 37.1231 12.835 37.37Z" fill="black"/>
</svg>
